<svg xmlns="http://www.w3.org/2000/svg" width="1482.667" height="1102.667" version="1.0" viewBox="0 0 1112 827"><path fill='#ffffff' d="m89 7-30.5.5-8 3.3C33 18 20.5 30.3 10.7 50l-4.2 8.5v711l2.9 6.5c4.5 9.9 12.9 22.2 19.4 28.1 7.4 6.8 14.9 11.3 26.5 15.8l9.2 3.6 446.5-.3c430.7-.3 533.7-.9 546.5-3.3 6.2-1.1 14.2-5.2 22.7-11.7 5.9-4.5 13.5-13.8 19.8-24.1 3.9-6.5 5-9.4 5.9-15.8 2.7-17.9 3.2-96.2 2.5-399.8l-.7-307-2.7-7c-6.5-16.5-18.4-30.7-33.2-39.8-9.8-6.1-12.4-6.5-45.8-7.7-27.9-1-882.4-1-937 0m41.4 45.1c23.8 7.8 31.1 39.2 13 55.9-7.8 7.1-11.5 8.5-23.4 8.5-9.5 0-11-.3-15.6-2.7-16.4-8.6-22.6-29.6-13.9-46.9 3-5.8 7.1-9.3 16-13.6 8.4-4 14.4-4.3 23.9-1.2m108.6 1c6.7 2.9 15.9 12.7 18.4 19.7 1.3 3.8 1.7 7.2 1.4 12.5-1.1 20.9-18.9 35.3-39 31.7-10.5-1.9-19.4-8-24.6-16.8-2.5-4.4-2.7-5.5-2.7-15.7 0-10 .2-11.5 2.7-16 4.5-8.5 12.9-15.1 22.5-17.5 5.5-1.4 15.5-.4 21.3 2.1m104.6.3c7.3 3.4 13.2 9.1 16.6 16.1 3.7 7.8 3.9 18.4.6 27.2-4.6 12.4-17.1 20.6-31.3 20.6-13.4 0-23.9-6.4-30.2-18.5-2.4-4.7-2.8-6.4-2.8-14.3 0-7.8.4-9.8 2.8-15 3.2-6.9 6.5-10.7 12.2-14.1 9.8-5.7 22.1-6.5 32.1-2m725.1 406.7-.6 298-2.6 4.5c-3.9 6.6-8.3 11.3-14.5 15.2l-5.4 3.5-33.6.8c-18.4.4-237.5.8-486.8.8l-453.3.1-6-3c-7.3-3.7-12.7-9.1-17.4-17.5l-3.5-6.3V162h1024.3z"/><path fill='#F5ECE4' d="M525 254.6c-1.4.2-5 1.1-8 2s-6.8 2-8.5 2.4c-1.6.5-5.7 1.4-9 1.9-3.2.6-6.4 1.6-6.9 2.1-.6.6-2 1-3.2 1-1.3 0-2.6.4-2.9 1-.7 1.2-10.7 6-12.3 6-.7 0-1.2.4-1.2.9s-1 1.3-2.2 1.7c-2.7.8-9.5 4.8-14.5 8.6-2 1.6-4.2 2.8-4.9 2.8s-2 1.3-2.9 3c-.9 1.6-2.2 3-3.1 3-1.6 0-18.7 16.9-24.6 24.4-2.1 2.6-3.8 5.4-3.8 6.1 0 .8-1.1 2.2-2.5 3.1-1.3.9-2.9 3.1-3.4 5-.5 1.8-2.3 5.4-4 7.9s-3.1 5.3-3.1 6.1c0 1.7-2.7 7-4.6 9.1-.6.7-1.5 3.4-1.9 6-.3 2.6-1.3 5.8-2.1 7s-1.4 3.1-1.4 4.1-.4 2.2-1 2.8c-.5.5-1.4 5.7-2 11.4-.6 5.8-1.5 11.8-2 13.4-1.3 3.7-1.3 25.4 0 29.2.5 1.6 1.4 7.1 1.9 12.3.6 5.2 1.5 9.9 2.1 10.5.5.5 1 1.8 1 2.8s.6 2.9 1.4 4.1 1.8 4.4 2.1 7c.4 2.6 1.3 5.3 1.9 6 1.6 1.7 4.3 7.6 5.1 11.4.4 1.8 1 3.3 1.4 3.3 1 0 5.1 8.3 5.1 10.2 0 .9.7 2.1 1.5 2.8s1.5 1.6 1.5 2.1 1.6 3.2 3.5 5.9 3.5 5.6 3.5 6.3c0 .8.9 2.2 2 3.2s2 2.6 2 3.5c0 1 .7 2.3 1.5 3s1.5 1.8 1.5 2.5c0 .6.8 2.1 1.8 3.3 3.8 4.6 5.2 6.7 5.3 7.7 0 .5 1.6 3 3.5 5.5 1.8 2.5 4.5 6.1 5.9 8.2 1.3 2 2.9 3.9 3.5 4.3.5.3 1 1.4 1 2.4s1.1 2.6 2.5 3.5 2.5 2.2 2.5 2.9c0 .8 1.5 3.1 3.3 5.3 1.8 2.1 4.9 6.4 6.9 9.4s4.8 6.6 6.2 7.9c1.4 1.4 2.6 3 2.6 3.6 0 .7.9 2 2.1 3.1 1.2 1 2.9 3.5 4 5.5 1 2 2.5 3.9 3.4 4.2.8.4 2.1 1.9 2.7 3.4.7 1.5 2.6 4.2 4.3 5.9 1.6 1.7 3.9 4.3 5 5.8s3.9 4.9 6.3 7.5c2.3 2.7 4.2 5.2 4.2 5.6s1.7 2.7 3.8 5.1c10.3 11.8 20.9 24.9 25 31.1 1.2 1.8 3.7 4.3 5.5 5.3 3.2 2 10.7 2.8 10.7 1.1 0-.5 1.1-1.2 2.5-1.5 1.3-.3 3.1-1.9 3.9-3.4s2.8-4.1 4.6-5.7c1.7-1.7 4.8-5.3 6.8-8 4.4-6 11.1-14.4 13.2-16.5.9-.8 3.7-4.2 6.2-7.5s5.8-7.1 7.2-8.4c1.4-1.4 2.6-2.9 2.6-3.3 0-1 3.2-5.1 11-14.3 2.5-3 6.1-7.7 8-10.5 1.9-2.9 4.4-6.2 5.6-7.3 1.7-1.9 5.7-7.4 8.9-12.6.6-.9 2.5-3.3 4.3-5.4 1.7-2 3.2-4.4 3.2-5.2s1.1-2.2 2.4-3c1.4-.9 2.9-3 3.5-4.6.5-1.6 1.4-2.9 1.8-2.9.5 0 1.4-1.2 2.1-2.8 1.9-4.3 4.6-8.6 5.9-9.5 1.5-.9 7.3-9.5 7.3-10.8 0-.5.4-.9.9-.9s2.4-2.9 4.1-6.5 3.6-6.5 4.1-6.5.9-.8.9-1.8c0-1.1.9-2.9 2-4.2s2-2.8 2-3.5c0-.6 1.3-2.9 2.9-5.1 1.5-2.1 3.3-5.4 3.9-7.2s2-4.5 3.1-6c1-1.5 2.4-4.7 3.1-7.2s1.5-4.7 1.9-5c1.4-1 5.1-9.6 5.1-11.9 0-1.3.6-3.5 1.4-4.9 2.3-4.3 4.4-13.2 5.1-21.2.4-4.1 1.3-10.2 2.1-13.5 1.8-7.7 1.8-18.3 0-26-.8-3.3-1.7-8.9-2.1-12.5-.7-6.8-2.8-14.6-5.1-19.2-.8-1.4-1.4-3.6-1.4-4.9 0-2.3-3.7-10.9-5.1-11.9-.4-.3-1.2-2.4-1.8-4.8-.7-2.3-1.6-4.2-2.1-4.2-.6 0-1-.6-1-1.4 0-.7-.7-1.9-1.5-2.6s-1.5-1.9-1.5-2.7c0-.7-1.8-3.6-4-6.4s-4-5.5-4-6-.8-1.8-1.7-2.9c-1-1.1-3-3.4-4.5-5.2-2.3-2.9-11.9-12.7-22.9-23.3-1.9-1.9-3.9-3.5-4.4-3.5-.4 0-2.4-1.2-4.4-2.8-6.4-4.9-10.1-7.2-12.6-7.8-1.3-.3-2.9-1.2-3.6-2-.6-.8-1.6-1.4-2.2-1.4-1.6 0-11.5-4.9-12.2-6-.3-.6-1.7-1-3-1s-2.6-.4-2.9-.9c-.3-.4-3.2-1.4-6.5-2-3.3-.7-6.3-1.6-6.6-2.1-.4-.6-1.9-1-3.5-1s-5.7-.6-9.2-1.4c-6.1-1.4-43.5-2.9-48.8-2m39.7 61.5c1.5.6 5.3 1.5 8.3 2.1 3 .5 6.6 1.6 8 2.3 1.4.8 4.9 2.4 7.8 3.7 2.8 1.3 5.2 2.6 5.2 3 0 .5.9.8 2 .8s2.8.9 3.7 2c1 1.1 2.3 2 3 2 .6 0 3.7 2.2 6.9 5 3.1 2.7 6.4 5.2 7.4 5.5s2.1 1.7 2.4 3.1c.4 1.3 2.2 4.2 4.1 6.3s3.5 4.3 3.5 4.8c0 .6.7 1.7 1.6 2.4s2 2.2 2.5 3.4c1.4 2.8 3.3 6 4.6 7.6.6.8 1.4 3.2 1.8 5.4s1.3 5.1 2 6.5c4 8 4 8 4 30.6 0 16.5-.3 22.6-1.2 23.6-.7.6-1.3 2.2-1.3 3.4 0 1.3-.4 2.5-.9 2.9-.5.3-1.7 3-2.6 6-.8 3-1.9 5.5-2.3 5.5s-1.7 2.2-2.9 4.9c-1.3 2.6-3 5.4-3.8 6.1s-1.5 1.8-1.5 2.4c0 .7-1.3 2.5-3 4.1-1.6 1.6-3 3.4-3 4.1 0 1.7-9.7 11.4-11.4 11.4-.7 0-2.3 1.2-3.7 2.6-1.3 1.5-4.4 3.5-6.8 4.6-2.5 1-5 2.7-5.7 3.7s-3.5 2.4-6.1 3.1-5.2 1.7-5.8 2.1c-.5.5-1.8.9-3 .9-1.1 0-3 .6-4.1 1.4s-6.1 1.9-11.2 2.5c-5 .5-10 1.5-11.1 2-2.5 1.4-6.7 1.4-9.2.1-1-.6-6.7-1.5-12.6-2-7-.6-11.2-1.5-12.3-2.5-.9-.8-2.2-1.5-2.8-1.5-3 0-15.2-4.7-19.7-7.6-14.3-9.4-27.6-22.4-30.4-29.8-.6-1.4-1.5-2.6-2-2.6s-1.4-1.2-2-2.8c-.6-1.5-2.2-4.5-3.6-6.7-1.3-2.2-2.4-4.7-2.5-5.5 0-.8-.6-2.7-1.4-4.1-.7-1.4-1.6-4.3-2-6.5-.5-2.1-1.3-4.5-1.9-5.3-.8-1-1.2-8-1.2-22.5v-21.1l2.7-4.8c1.5-2.7 3-6.5 3.4-8.5.6-3.4 3.1-9 4.5-10.2.3-.3 1.4-2 2.3-3.8.9-1.7 2.1-3.2 2.6-3.2.6 0 1-.8 1-1.8 0-2.8 27.8-29.2 30.8-29.2.5 0 2.9-1.1 5.3-2.5s5.1-2.7 5.9-3.1c.8-.3 2.6-1.2 4-1.9s5-1.8 8-2.4 6.9-1.5 8.5-2c4.2-1.3 33.7-1.3 37.2 0"/><path fill='#F5ECE4' d="M529.4 344.4c-2.2 1-4 3.2-6.6 8.2-1.9 3.8-3.8 8.3-4.1 10.1-.4 1.8-1.8 5-3.1 7.2-1.4 2.2-2.8 5.2-3.2 6.8-.4 1.5-2 5.1-3.5 8-1.6 2.9-2.9 6-2.9 7s-.9 3.6-2 5.8-2 4.7-2 5.7c0 .9-.4 1.9-.9 2.2s-1.4 3-2.1 5.8c-.6 2.9-1.8 6.7-2.6 8.5-.8 1.7-1.4 3.8-1.4 4.6 0 .9-.4 1.8-.9 2.1-.5.4-1.2 2.4-1.6 4.5-.3 2.2-1.3 4.7-2 5.8-.8 1-1.5 3.1-1.5 4.6s-.7 4.4-1.5 6.4c-.8 1.9-1.5 5.9-1.5 8.9 0 6.2 1.3 7.4 8 7.4 5.1 0 8-1.5 8-4.1 0-1.1.6-3 1.4-4.2s1.7-4.9 2.1-8.2 1.3-7.5 2.1-9.3c.8-1.7 2-4.7 2.8-6.5.8-1.7 1.8-5 2.2-7.1.4-2.2 1.3-5.1 2-6.5.8-1.4 1.4-3.3 1.4-4.2 0-.8.4-1.9.9-2.5.5-.5 1.4-2.9 1.9-5.4 1.9-8.4 6.3-19.8 8.8-23 .6-.8 1.4-3.2 1.8-5.2.4-2.1 1.2-4.3 1.9-5 1.8-2 4.7-7.4 4.7-8.8 0-.7 1.4-3.5 3-6.2 1.7-2.6 3-5.4 3-6.1 0-1.7-6.9-8.7-8.4-8.7-.6.1-2.5.7-4.2 1.4M573.7 348.1c-1.5 1.1-3.2 3.8-3.8 6-.7 2.1-1.8 4.4-2.6 5-.7.6-1.3 2-1.3 2.9 0 1-.7 3.1-1.5 4.7-2.7 5.1-5.5 12.2-5.5 13.7 0 .9-.4 1.6-.9 1.6s-1.2 1.3-1.6 2.9c-.3 1.6-1.3 3.5-2.1 4.2-.8.6-1.4 2-1.4 3.1 0 1-.6 2.9-1.4 4.1s-1.7 4.2-2.1 6.7-1.3 5.5-2.1 6.7-1.4 3-1.4 4-.7 2.7-1.5 3.7c-.8 1.1-1.5 2.8-1.5 3.8s-1.2 5.1-2.6 9.1c-1.4 3.9-3.3 9.9-4.1 13.2s-1.9 6.4-2.4 7c-.5.5-.9 2-.9 3.2 0 1.3-.7 3.5-1.6 4.8-1 1.5-1.6 5-1.7 9.5-.2 8.7 1.2 10.4 8.2 9.7 5.1-.6 8-3.5 8.1-8 0-1.5.6-4 1.4-5.5.7-1.5 1.7-5.2 2.1-8.2s1.3-6.8 2.1-8.4 1.4-3.7 1.4-4.7.4-2 .9-2.4c.5-.3 1.5-3.1 2.1-6.3.6-3.1 1.5-6.5 2-7.4.6-1 1-2.3 1-3 .1-.7.9-3.1 2-5.3s1.9-4.9 2-6.1c0-1.1.7-2.9 1.5-4 .8-1 1.5-3.1 1.5-4.5 0-1.5.7-3.2 1.5-3.9s1.7-2.8 2.1-4.9c.4-2 1.2-4.3 1.9-5.1.8-.8 1.6-3.2 2-5.3s1.4-4.4 2.1-5.2c.8-.7 1.4-2.1 1.4-2.9 0-.9.4-1.6.8-1.6.5 0 1.5-1.9 2.2-4.3.7-2.3 1.5-4.4 1.9-4.7 2.3-1.7 4.1-6.5 4.1-10.8 0-4.2-.4-5.1-2.5-6.2-1.4-.7-2.5-1.7-2.5-2.2 0-1.6-4.8-.8-7.3 1.3M589.1 396.5c-1.7 2-3.1 4.2-3.1 5s-.4 1.5-1 1.5-1 2.6-1 5.9c0 6.3 3.4 14.2 7 16.1 1 .6 6.2 1 11.5 1 8.8 0 9.8-.2 11.8-2.4 5.2-5.5 5.7-6.8 5.7-14.1 0-12.7-4.5-16.5-19.4-16.5-8.4 0-8.4 0-11.5 3.5"/></svg>